<?xml version="1.0"?>
<svg width="800" height="800" xmlns="http://www.w3.org/2000/svg" xmlns:svg="http://www.w3.org/2000/svg" version="1.1" xml:space="preserve">
 <g class="layer">
  <title>Layer 1</title>
  <g id="svg_203">
   <g id="svg_204">
    <path d="m911.93,799.74c1.75,3.76 -2.51,4.94 -17.24,8.88c-10.48,2.84 -21.46,5.34 -32.19,8.06c-5.52,1.42 -11.15,2.84 -16.18,4.56c-4.51,1.58 -8.29,3.57 -14.23,6.22c-0.57,-2.57 -1.01,-4.02 -1.26,-5.47c-2.57,-13.58 -4.71,-27.19 -7.72,-40.76c-5.08,-23.27 -10.04,-46.53 -16.24,-69.75c-4.83,-17.92 -12.43,-35.69 -16.94,-53.64c-4.14,-16.54 -7.08,-33.17 -8.46,-49.81c-2.76,-34.45 -4.27,-68.88 -1.13,-103.39c2.69,-29.79 0.19,-59.68 -0.69,-89.53c-0.25,-7.59 -2.89,-15.21 -5.01,-22.78c-2.71,-9.55 -5.97,-19.05 -8.41,-26.97c-17.56,40.84 -15.24,83.62 -8.78,126.32c6.46,42.74 10.29,85.49 12.23,128.29c1.06,23.62 4.69,47.21 3.88,70.79c-1.31,37.89 8.48,75.28 23.65,112.48c3.95,9.8 9.84,19.43 15.31,29.08c4.57,8.03 -2.07,13.63 -21.46,15.2c-12.43,1.02 -26.03,1.23 -38.45,0.21c-29.16,-2.37 -28.98,-2.77 -53.13,0.98c0,-4.31 0.44,-8.64 -0.05,-12.92c-2.2,-20.35 -4.78,-40.69 -7.03,-61.01c-2.14,-18.94 -5.77,-37.88 -5.65,-56.84c0.37,-36.6 -3.89,-73.07 -10.04,-109.56c-4.2,-25.36 -6.39,-50.83 -6.52,-76.26c-0.27,-35.22 -3.7,-70.29 -11.54,-105.33c-5.72,-25.58 -9.54,-51.2 -14.5,-76.77c-1.93,-9.9 -4.76,-19.76 -8.83,-29.69c-0.94,4.64 -2.64,9.29 -2.71,13.93c-0.55,28.21 -2.57,56.46 -0.42,84.64c1.56,20.53 8.96,40.97 13.47,61.48c1.89,8.74 4.09,17.52 4.39,26.3c1.5,40.47 3.33,80.97 3.28,121.46c0,26.59 -3.2,53.19 -4.59,79.78c-1.58,30.37 5.15,60.57 10.22,90.81c2.76,16.61 5.08,33.23 7.79,49.86c0.44,2.52 2.12,5 2.64,7.51c0.69,3.28 6.52,6.57 -1.2,9.77c-9.03,3.71 -17.17,7.84 -31.18,7.81c-3.26,0 -6.59,0.08 -9.72,-0.15c-19.56,-1.42 -39.13,-2.93 -60.39,-4.56c0,-10.12 0.87,-20.29 -0.14,-30.41c-3.88,-39.51 -7.9,-79.04 -12.91,-118.53c-2.58,-20.32 -7.35,-40.61 -11.12,-60.89c-0.62,-3.22 -1.36,-6.47 -1.43,-9.69c-0.5,-34.48 -0.5,-68.94 -1.43,-103.43c-0.83,-32.15 -1.95,-64.3 -4.14,-96.45c-1.7,-24.73 -5.4,-49.43 -7.91,-74.17c-1.43,-14.31 -2.44,-28.63 -6.02,-42.94c0,3.6 -0.25,7.17 0.07,10.77c1.56,19.69 -2.14,39.28 -7.97,58.81c-1.45,4.81 -2.64,9.69 -2.39,14.52c1.5,30.75 3.65,61.5 5.15,92.28c1.68,34.71 3.45,69.4 4.32,104.1c0.76,31.69 0.76,63.41 0.19,95.1c-0.25,13.63 -2.51,27.27 -4.46,40.9c-3.82,26.68 0.44,53.19 6.27,79.7c3.33,15.16 7.03,30.33 10.48,45.38c-17.62,6.68 -37.82,6.98 -58.71,6.41c-9.03,-0.24 -18.18,-0.26 -27.23,0c-20.94,0.68 -41.02,0.11 -58.76,-6.22c3.45,-14.97 6.59,-29.92 10.29,-44.85c8.09,-32.52 10.16,-65.07 4.39,-97.73c-1.45,-8.06 -2.39,-16.16 -2.39,-24.26c0.12,-42.56 -0.12,-85.15 1.26,-127.71c1.06,-32.85 4.76,-65.7 6.59,-98.51c1.26,-22.22 1.7,-44.45 1.7,-66.63c0.05,-6.68 -1.95,-13.42 -4.09,-20.06c-5.08,-15.61 -6.76,-31.31 -6.07,-47.06c0.18,-4.62 0,-9.23 -1.63,-13.91c-1.13,7.17 -2.46,14.33 -3.4,21.5c-2.2,16.86 -4.71,33.7 -6.27,50.56c-1.58,16.88 -2,33.76 -3.2,50.66c-0.99,15.48 -2.64,30.97 -3.38,46.45c-0.64,13.42 -0.37,26.87 -0.44,40.29c-0.19,33.3 0.76,66.63 -1.01,99.93c-0.99,19.4 -6.96,38.75 -9.65,58.15c-3.2,22.84 -5.21,45.73 -7.84,68.62c-2.96,24.95 -6.34,49.88 -9.03,74.84c-0.81,8.04 -0.12,16.12 -0.12,24.66c-11.3,0.75 -22.34,1.47 -33.37,2.25c-10.61,0.72 -21.21,1.74 -31.92,2.23c-17.44,0.78 -27.73,-4.18 -37.52,-9.26c-1.45,-0.72 -1.5,-2.17 -1.26,-3.21c3.2,-14.29 7.21,-28.5 9.72,-42.78c4.51,-25.36 10.04,-50.75 11.49,-76.17c1.68,-29.14 0.25,-58.31 -1.33,-87.45c-1.56,-29.6 -3.26,-59.21 0.19,-88.83c1.56,-13.6 1.38,-27.29 0.99,-40.95c-0.55,-22.73 4.9,-45.27 10.98,-67.78c6.78,-25.09 11.86,-50.18 9.29,-75.49c-2.02,-19.15 -2.64,-38.37 -3.89,-57.56c-0.05,-1.59 -0.5,-3.16 -2.64,-4.77c-3.51,15.83 -7.52,31.66 -10.41,47.53c-7.4,40.36 -14.8,80.72 -21.14,121.11c-2.07,13.6 -1.5,27.28 -1.19,40.92c0.89,37.54 -5.28,74.93 -12.29,112.31c-2.83,14.97 -3.28,30.03 -4.14,45.05c-1.5,24.98 -1.95,49.98 -3.77,74.96c-0.94,12.69 -4.59,25.35 -6.02,38.07c-1.95,16.37 -2.89,32.74 -4.32,49.3c-0.32,0 -2.07,0.15 -3.15,-0.14c-12.91,-3.51 -26.27,-3 -40.63,-1.74c-13.05,1.13 -26.66,1.61 -39.96,1.34c-7.47,-0.15 -15.37,-2.01 -21.83,-3.91c-7.97,-2.33 -10.73,-5.59 -7.72,-10.22c22.77,-35.16 31.74,-71.28 38.77,-107.51c0.87,-4.37 1.06,-8.77 1.24,-13.17c1.95,-42.78 2.96,-85.6 6.04,-128.37c2.37,-32.61 8.39,-65.14 10.91,-97.74c2.12,-27.51 1.7,-55.07 2,-82.58c0.07,-3.91 -2.2,-7.81 -3.19,-11.69c-2.89,-10.55 -5.65,-21.1 -7.84,-29.41c-10.11,27.23 -16.94,56.81 -15,86.7c1.82,27.51 2.27,55.05 2.44,82.58c0.32,43.28 -1.26,86.55 -12.61,129.62c-4.39,16.52 -11.54,32.92 -15.99,49.48c-5.15,18.83 -8.66,37.75 -12.92,56.62c-3.58,15.89 -7.4,31.75 -10.8,47.63c-0.74,3.35 -0.12,6.76 -0.12,11.81c-21.19,-10.84 -49.24,-14.17 -71.81,-21.18c-6.98,-2.14 -9.84,-3.08 -9.84,-5.07c0,-1 0.74,-2.25 2,-4.03c2.07,-2.84 4.89,-5.63 7.47,-8.4c12.61,-13.52 25.78,-26.94 37.69,-40.57c9.6,-10.95 11.03,-22.59 12.61,-34.13c4.27,-31.91 5.21,-63.81 4.2,-95.79c-0.69,-21 3.33,-42.08 3.01,-63.11c-0.5,-30.99 -3.06,-61.99 -4.64,-92.98c-0.62,-13.42 -0.5,-26.84 -1.38,-40.23c-1.06,-16.43 -3.19,-32.82 -4.07,-49.24c-1.06,-19.89 -2.39,-39.77 -1.75,-59.66c1.38,-40.97 0,-81.84 -9.79,-122.69c-6.96,-29.22 -10.91,-58.55 -16.18,-87.86c-0.07,-0.49 -0.12,-0.94 -0.12,-1.42c0,-0.65 0.05,-1.29 0.05,-1.91c1.13,0 2.2,0 3.33,0c0.81,1.31 1.75,2.61 2.39,3.92c13.3,27.66 89,75.33 158.12,92.98c45.98,11.73 94.35,20.55 146.84,25.13c122.39,10.67 239.81,5.33 350.64,-20.42c38.95,-9.07 72.69,-20.97 99.3,-36.2c16.18,-9.24 30.98,-18.95 45.66,-28.64c14.55,-9.57 24.59,-20.04 30.98,-31.15c1.13,-1.93 2.69,-3.8 6.34,-5.63c0.12,0.98 0.44,1.95 0.44,2.95c0,0.21 0,0.45 -0.07,0.7c-6.59,34.59 -13.42,69.16 -19.81,103.75c-6.34,34.4 -8.36,68.88 -6.02,103.37c1.56,24.31 2.32,48.54 -3.72,72.78c-2,8.04 -1.75,16.18 -2,24.28c-0.81,29.63 -1.13,59.23 -2.32,88.86c-0.81,20.34 -3.51,40.7 -3.77,61.04c-0.12,15.94 2.96,31.91 3.4,47.85c0.74,27.33 -0.25,54.61 1.13,81.9c0.87,16.18 3.31,32.4 8.27,48.41c2.89,9.26 11.17,18.3 18.77,27.19c7.9,9.31 17.93,18.3 27.03,27.45c1.06,1.08 2.05,2.12 3.01,3.22c2.5,2.82 4.27,4.83 5.01,6.36zm-148.28,-444.95c0,-5.21 0,-10.41 0,-15.65c-0.32,0.06 -0.64,0.11 -0.89,0.19c0,5.15 0,10.33 0,15.48c0.25,0 0.57,0 0.89,-0.02zm-36.21,25.98c12.06,-48.09 13.05,-95.07 10.48,-143.68c-21.63,41.86 -24.96,90.03 -10.48,143.68zm-108.63,228.87c-1.26,-32.11 -2.51,-64.22 -3.77,-96.31c-4.69,32.04 -7.13,64.22 3.77,96.31zm-10.61,-239.88c12.18,-36.18 -0.87,-71.76 -11.54,-107.39c-1.19,35.93 1.2,71.79 11.54,107.39zm-293.29,1.26c9.4,-37.24 11.79,-73.04 9.97,-108.84c-3.33,11.43 -7.21,22.86 -9.91,34.32c-5.52,23.03 -9.28,46.1 -3.7,69.24c0.32,1.34 1.75,2.63 3.65,5.28zm-11.49,238.47c10.55,-32.08 8.36,-64.17 3.7,-96.26c-1.26,32.09 -2.5,64.16 -3.7,96.26zm-108.63,-231.81c13.17,-46.64 12.55,-92.95 -9.79,-138.95c-3.01,46.45 -2.62,92.85 9.79,138.95zm-34.75,-26.81c0,-4.86 0,-9.74 0,-14.62c-0.37,0 -0.74,0 -1.13,0c0,4.88 0,9.76 0,14.64c0.39,0 0.76,-0.02 1.13,-0.02z" fill="#C1272D" id="svg_205"/>
    <path d="m880.01,0.23c16.36,1.04 19.56,2.65 17.62,9.55c-3.01,10.79 -7.84,21.36 -15.24,31.85c-12.16,17.26 -22.52,34.73 -32.86,52.23c-13.49,22.93 -41.96,42.48 -75.46,60.78c-19.51,10.67 -43.98,19.13 -70.94,26.16c-63.54,16.58 -133.17,24.83 -207,27.54c-67.37,2.46 -132.41,-2.1 -195.95,-11.14c-36.51,-5.21 -71.07,-12.49 -101.92,-22.47c-56.9,-18.46 -95.09,-42.8 -118.18,-71.37c-11.79,-14.61 -19.63,-29.79 -29.3,-44.72c-4.51,-6.89 -9.65,-13.73 -13.3,-20.71c-5.01,-9.69 -9.4,-19.44 -12.98,-29.22c-0.19,-0.49 -0.32,-0.97 -0.44,-1.4c-0.94,-4.43 2.71,-6.04 14.31,-6.72c14.92,-0.88 30.12,-0.96 44.6,-1.36c24.91,1.18 49.06,2.71 73.26,3.33c22.59,0.59 45.41,0.83 68,0.19c68.48,-1.93 136.98,-4.11 205.3,-6.85c11.15,-0.43 22.08,-0.7 33.05,-0.7c9.77,0 19.51,0.21 29.41,0.64c53.77,2.39 107.77,3.81 161.64,5.59c20.45,0.64 40.97,1.58 61.47,1.63c21.53,0.02 43.09,-0.89 64.62,-1.34c30.22,-0.63 60.39,-1.24 90.58,-1.84c3.26,-0.05 6.52,0.12 9.72,0.33zm-63.24,35.29c1.2,-2.01 5.4,-4.38 -1.88,-5.99c-7.77,2.9 -45.09,35 -52.74,45.57c32.54,-10.01 45.78,-24.24 54.62,-39.58zm-4.39,48.06c-14.23,4.54 -18.63,10.63 -26.22,15.7c-7.45,5.05 -13.84,10.39 -21.51,15.41c-7.9,5.2 -16.43,10.27 -25.21,15.21c-8.41,4.75 -17.49,9.26 -26.27,13.85c51.04,-11.24 97.34,-39.34 99.22,-60.17zm-63.1,12.43c1.33,-1.48 1.58,-3.14 2.89,-5.8c-21.02,11.98 -40.33,22.79 -59.03,33.8c-16.06,9.42 -34.44,17.84 -55.75,25.03c-16.57,5.58 -33.69,10.82 -50.49,16.29c-27.8,9.05 -58.97,14.39 -93.71,15.92c-56.53,2.55 -110.03,-0.4 -156.95,-15.65c-15.49,-5.05 -31.35,-9.84 -46.72,-14.95c-23.65,-7.83 -44.1,-16.96 -61.66,-27.38c-18.25,-10.84 -37.37,-21.38 -58.09,-33.19c1.58,2.99 1.89,4.81 3.58,6.36c9.22,8.61 18.25,17.26 28.36,25.66c31.99,26.75 82.1,46.18 139.81,62.33c30.04,8.43 63.22,11.43 99.16,9.31c12.73,-0.72 26.03,-0.88 38.7,-0.07c40.15,2.55 76.09,-1.67 109.08,-11.3c30.04,-8.75 57.89,-18.66 82.56,-30.09c35.3,-16.34 59.4,-35.69 78.27,-56.27zm-163.27,18.05c72.13,-7.45 152.74,-46.64 145.58,-61.91c-48.86,20.78 -95.96,40.82 -145.58,61.91zm76.52,-60.91c18.94,-2.57 45.41,-19.13 44.79,-28.58c-15.24,9.71 -30.17,19.21 -44.79,28.58zm-79.16,72.13c2.14,-2.19 5.52,-4.45 0.69,-7.43c-3.51,1.15 -6.76,1.93 -9.15,3.03c-28.29,13.3 -64.67,20.55 -104.19,25.43c-4.96,0.63 -10.91,1.08 -15.62,0.49c-39.32,-4.86 -76.39,-11.59 -105.13,-24.77c-3.45,-1.55 -7.6,-2.82 -11.42,-4.21c-1.19,0.32 -2.37,0.64 -3.51,0.96c1.58,2.52 2.44,5.21 4.96,7.57c11.47,10.79 31.74,17.9 55.2,23.59c4.2,1.05 11.28,1.56 12.41,2.99c4.2,5.28 15.05,4.31 23.46,5.09c10.48,0.94 21.46,1.16 32.19,1.13c10.22,-0.02 20.45,-0.96 30.66,-1.15c11.3,-0.21 17.88,-3.46 25.65,-6.25c6.14,-2.17 14.11,-3.38 20.77,-5.32c18.63,-5.44 34.24,-12.05 43.02,-21.14zm40.21,-76.05c-31.43,20.69 -81.03,30.03 -125.83,43.05c63.54,1.88 123.88,-25.11 125.83,-43.05zm-84.73,57.09c-1.01,-0.11 -2.27,-0.46 -2.89,-0.32c-4.34,0.96 -8.78,1.85 -12.68,3.06c-41.39,13.04 -82.66,13.09 -124.13,0.08c-4.51,-1.42 -9.79,-2.45 -15.56,-3.84c-1.01,12.28 38.26,23.59 75.78,23.96c37.32,0.34 79.35,-10.77 79.48,-22.95zm-45.93,-42.81c25.41,9.05 65.17,1.35 75.9,-15.19c-25.95,5.18 -50.87,10.18 -75.9,15.19zm-140.43,-15.29c14.43,17.41 53.7,24.72 76.52,15.22c-24.89,-4.96 -49.86,-9.94 -76.52,-15.22zm73.39,44.28c-24.72,-6.62 -48.05,-12 -69.07,-18.75c-20.94,-6.76 -39.52,-14.9 -58.34,-22.12c13.44,22.95 62.8,39.32 127.4,40.87zm-91.64,20.93c-9.6,-4.37 -18.57,-8.64 -28.04,-12.69c-9.6,-4.09 -19.69,-7.92 -29.6,-11.87c-9.84,-3.92 -20.13,-7.7 -29.6,-11.81s-17.95,-8.61 -27.23,-12.79c-8.98,-4.05 -16.18,-9.05 -29.42,-11.32c-6.76,16.16 83.62,56.62 143.9,60.48zm-74.2,-60.03c-15,-9.57 -29.99,-19.15 -44.92,-28.74c-0.94,0.27 -1.88,0.53 -2.76,0.81c8.21,11.54 23.02,21.18 47.68,27.93zm-49.8,90.93c-2.02,-1.21 -2.96,-1.94 -4.21,-2.5c-25.9,-12.13 -47.66,-25.55 -66.36,-39.91c-6.59,-5.01 -13.49,-9.95 -20.7,-14.84c-1.7,-1.15 -5.03,-1.87 -8.85,-3.25c5.45,21.88 48.62,51.32 100.12,60.5zm-50.63,-69.67c-5.51,-8.33 -44.46,-42.09 -53.06,-45.52c-7.52,11.19 22.77,36.6 53.06,45.52z" fill="#C1272D" id="svg_206"/>
   </g>
   <g id="svg_207">
    <path d="m924.42,798.99c2.57,5.82 -1.01,8.32 -15,12.69c-3.51,1.1 -6.89,2.23 -10.34,3.35c-39.64,13.27 -34.19,8.65 -56.78,29.22c-15.79,14.44 -43.71,20.08 -93.2,17.47c-2.14,-0.11 -4.21,-0.45 -6.29,-0.66c-20.57,-2.18 -21.51,-2.05 -33.67,5.15c-3.77,2.25 -7.4,4.56 -10.85,6.92c-21.09,14.23 -51.87,18.7 -89.44,16.39c-4.83,-0.3 -9.79,-0.45 -14.38,-1.07c-17.62,-2.35 -32.66,-0.49 -47.09,4.16c-16.75,5.41 -35.82,9.06 -57.03,8.69c-19.76,-0.33 -39.32,-0.21 -59.08,0.02c-19.46,0.27 -37.64,-2.65 -52.81,-7.74c-17.26,-5.77 -35.13,-7.26 -56.14,-4.88c-10.23,1.16 -21.39,1.37 -32.12,1.23c-25.21,-0.32 -45.93,-4.82 -60.9,-13.66c-6.71,-3.91 -13.12,-7.94 -19.46,-11.96c-6.59,-4.18 -14.55,-5.56 -26.34,-3.78c-17.17,2.57 -34.93,2.14 -52.87,0.85c-21.33,-1.53 -36.77,-6.41 -47.11,-14.33c-5.03,-3.8 -9.54,-7.78 -13.61,-11.8c-5.77,-5.7 -14.61,-10.15 -26.47,-13.69c-11.54,-3.46 -22.27,-7.38 -33.87,-10.76c-8.66,-2.55 -13.12,-5.66 -12.73,-9.45l13.05,0.3c0,1.99 2.87,2.93 9.84,5.07c22.57,7.01 50.62,10.34 71.81,21.18c0,-5.05 -0.62,-8.46 0.12,-11.81c3.4,-15.89 7.22,-31.75 10.8,-47.63c4.27,-18.87 7.77,-37.79 12.92,-56.62c4.44,-16.56 11.6,-32.96 15.99,-49.48c11.35,-43.07 12.92,-86.33 12.61,-129.62c-0.18,-27.53 -0.62,-55.07 -2.44,-82.58c-1.95,-29.89 4.89,-59.47 15,-86.7c2.2,8.32 4.96,18.86 7.84,29.41c0.99,3.89 3.26,7.78 3.19,11.69c-0.3,27.51 0.12,55.07 -2,82.58c-2.51,32.6 -8.53,65.13 -10.91,97.74c-3.08,42.78 -4.09,85.6 -6.04,128.37c-0.18,4.41 -0.37,8.8 -1.24,13.17c-7.03,36.24 -16,72.35 -38.77,107.51c-3.01,4.63 -0.25,7.89 7.72,10.22c6.46,1.9 14.36,3.76 21.83,3.91c13.3,0.27 26.91,-0.21 39.96,-1.34c14.36,-1.26 27.73,-1.77 40.63,1.74c1.08,0.3 2.83,0.14 3.15,0.14c1.43,-16.56 2.37,-32.93 4.32,-49.3c1.43,-12.72 5.08,-25.39 6.02,-38.07c1.82,-24.98 2.27,-49.98 3.77,-74.96c0.87,-15.02 1.31,-30.08 4.14,-45.05c7.01,-37.39 13.17,-74.77 12.29,-112.31c-0.32,-13.63 -0.89,-27.32 1.19,-40.92c6.34,-40.39 13.74,-80.75 21.14,-121.11c2.89,-15.86 6.9,-31.7 10.41,-47.53c2.14,1.61 2.58,3.19 2.64,4.77c1.26,19.19 1.88,38.4 3.89,57.56c2.57,25.31 -2.51,50.4 -9.29,75.49c-6.07,22.51 -11.53,45.05 -10.98,67.78c0.39,13.66 0.57,27.35 -0.99,40.95c-3.45,29.63 -1.75,59.23 -0.19,88.83c1.58,29.14 3.01,58.31 1.33,87.45c-1.45,25.42 -6.98,50.81 -11.49,76.17c-2.51,14.27 -6.52,28.49 -9.72,42.78c-0.25,1.04 -0.19,2.49 1.26,3.21c9.79,5.08 20.08,10.05 37.52,9.26c10.71,-0.49 21.32,-1.5 31.92,-2.23c11.03,-0.78 22.08,-1.5 33.37,-2.25c0,-8.54 -0.69,-16.62 0.12,-24.66c2.69,-24.96 6.07,-49.89 9.03,-74.84c2.64,-22.9 4.64,-45.78 7.84,-68.62c2.69,-19.4 8.66,-38.75 9.65,-58.15c1.77,-33.3 0.81,-66.63 1.01,-99.93c0.07,-13.42 -0.19,-26.87 0.44,-40.29c0.74,-15.48 2.39,-30.97 3.38,-46.45c1.2,-16.9 1.63,-33.78 3.2,-50.66c1.56,-16.86 4.07,-33.7 6.27,-50.56c0.94,-7.17 2.27,-14.33 3.4,-21.5c1.63,4.68 1.81,9.29 1.63,13.91c-0.69,15.76 0.99,31.45 6.07,47.06c2.14,6.63 4.14,13.37 4.09,20.06c0,22.19 -0.44,44.41 -1.7,66.63c-1.82,32.81 -5.52,65.66 -6.59,98.51c-1.38,42.56 -1.13,85.15 -1.26,127.71c0,8.1 0.94,16.21 2.39,24.26c5.77,32.66 3.7,65.21 -4.39,97.73c-3.7,14.93 -6.83,29.88 -10.29,44.85c17.74,6.33 37.82,6.89 58.76,6.22c9.05,-0.26 18.2,-0.24 27.23,0c20.89,0.57 41.09,0.27 58.71,-6.41c-3.45,-15.06 -7.15,-30.22 -10.48,-45.38c-5.82,-26.51 -10.09,-53.02 -6.27,-79.7c1.95,-13.63 4.21,-27.27 4.46,-40.9c0.57,-31.69 0.57,-63.41 -0.19,-95.1c-0.87,-34.7 -2.64,-69.39 -4.32,-104.1c-1.5,-30.78 -3.65,-61.53 -5.15,-92.28c-0.25,-4.83 0.94,-9.71 2.39,-14.52c5.82,-19.53 9.53,-39.13 7.97,-58.81c-0.32,-3.6 -0.07,-7.17 -0.07,-10.77c3.58,14.31 4.59,28.63 6.02,42.94c2.51,24.73 6.21,49.43 7.91,74.17c2.2,32.15 3.31,64.3 4.14,96.45c0.94,34.48 0.94,68.94 1.43,103.43c0.07,3.22 0.81,6.47 1.43,9.69c3.77,20.28 8.53,40.57 11.12,60.89c5.01,39.49 9.03,79.02 12.91,118.53c1.01,10.12 0.14,20.29 0.14,30.41c21.26,1.63 40.83,3.14 60.39,4.56c3.13,0.24 6.46,0.15 9.72,0.15c14,0.04 22.15,-4.1 31.18,-7.81c7.72,-3.2 1.89,-6.49 1.2,-9.77c-0.51,-2.51 -2.2,-4.99 -2.64,-7.51c-2.71,-16.63 -5.03,-33.25 -7.79,-49.86c-5.06,-30.24 -11.79,-60.44 -10.22,-90.81c1.38,-26.59 4.59,-53.19 4.59,-79.78c0.05,-40.49 -1.77,-80.99 -3.28,-121.46c-0.3,-8.78 -2.5,-17.56 -4.39,-26.3c-4.51,-20.51 -11.92,-40.95 -13.47,-61.48c-2.14,-28.18 -0.12,-56.43 0.42,-84.64c0.07,-4.64 1.77,-9.29 2.71,-13.93c4.07,9.93 6.9,19.78 8.83,29.69c4.96,25.58 8.78,51.2 14.5,76.77c7.84,35.04 11.28,70.12 11.54,105.33c0.12,25.43 2.32,50.9 6.52,76.26c6.14,36.5 10.41,72.96 10.04,109.56c-0.12,18.95 3.51,37.89 5.65,56.84c2.25,20.32 4.83,40.66 7.03,61.01c0.5,4.29 0.05,8.61 0.05,12.92c24.15,-3.76 23.97,-3.35 53.13,-0.98c12.43,1.02 26.03,0.81 38.45,-0.21c19.39,-1.56 26.03,-7.17 21.46,-15.2c-5.47,-9.65 -11.37,-19.29 -15.31,-29.08c-15.17,-37.2 -24.96,-74.58 -23.65,-112.48c0.81,-23.59 -2.82,-47.17 -3.88,-70.79c-1.95,-42.8 -5.77,-85.55 -12.23,-128.29c-6.46,-42.7 -8.78,-85.48 8.78,-126.32c2.44,7.92 5.7,17.43 8.41,26.97c2.12,7.57 4.76,15.19 5.01,22.78c0.89,29.85 3.38,59.74 0.69,89.53c-3.13,34.51 -1.63,68.94 1.13,103.39c1.38,16.64 4.32,33.28 8.46,49.81c4.51,17.95 12.11,35.72 16.94,53.64c6.2,23.22 11.15,46.48 16.24,69.75c3.01,13.58 5.15,27.19 7.72,40.76c0.25,1.46 0.69,2.9 1.26,5.47c5.95,-2.65 9.72,-4.64 14.23,-6.22c5.03,-1.72 10.66,-3.14 16.18,-4.56c10.73,-2.71 21.71,-5.21 32.19,-8.06c14.73,-3.94 19,-5.13 17.24,-8.88l12.48,-0.75z" fill="#510B0B" id="svg_208"/>
    <path d="m924.42,798.99l-12.48,0.75c-0.74,-1.53 -2.51,-3.54 -5.01,-6.36c-0.96,-1.1 -1.95,-2.14 -3.01,-3.22c-9.1,-9.15 -19.14,-18.14 -27.03,-27.45c-7.6,-8.88 -15.88,-17.92 -18.77,-27.19c-4.96,-16.02 -7.4,-32.23 -8.27,-48.41c-1.38,-27.29 -0.39,-54.57 -1.13,-81.9c-0.44,-15.93 -3.52,-31.9 -3.4,-47.85c0.27,-20.34 2.96,-40.7 3.77,-61.04c1.19,-29.63 1.5,-59.23 2.32,-88.86c0.25,-8.1 0,-16.24 2,-24.28c6.04,-24.24 5.28,-48.47 3.72,-72.78c-2.34,-34.48 -0.32,-68.97 6.02,-103.37c6.39,-34.59 13.23,-69.16 19.81,-103.75c0.07,-0.25 0.07,-0.49 0.07,-0.7l19.19,-0.06c0.12,17.18 -1.88,34.33 -5.72,51.47c-10.78,48.44 -13.42,96.96 -7.95,145.56c1.88,16.88 5.9,33.7 6.39,50.58c0.69,24.28 -0.57,48.57 -1.58,72.85c-1.38,35.62 -3.82,71.23 -4.82,106.84c-0.51,19.19 1.19,38.37 1.75,57.56c0.37,13.42 1.31,26.84 0.69,40.25c-1.77,37.98 1.19,75.87 10.09,113.65c1.58,6.66 4.51,13.29 8.04,19.81c4.44,8.1 8.91,16.16 8.59,24.6c-0.07,3.14 2.44,6.36 4.51,9.45c0.94,1.45 1.7,2.71 2.2,3.84z" fill="#510B0B" id="svg_209"/>
    <path d="m892.37,-9.97c18.55,3.52 26.65,8.99 24.2,17.6c-0.32,1.02 -0.57,2.06 -0.87,3.08l-18.08,-0.94c1.95,-6.89 -1.26,-8.51 -17.62,-9.55c-3.2,-0.21 -6.46,-0.38 -9.72,-0.33c-30.19,0.59 -60.35,1.21 -90.58,1.84c-21.53,0.45 -43.09,1.36 -64.62,1.34c-20.5,-0.06 -41.02,-1 -61.47,-1.63c-53.87,-1.78 -107.87,-3.2 -161.64,-5.59c-9.9,-0.43 -19.63,-0.64 -29.41,-0.64l0.12,-7.97c3.88,0 7.72,0.02 11.6,0.02c39.96,0.06 79.85,-0.75 119.93,-0.18c48.55,0.64 97.23,0.4 145.9,0.3c11.79,-0.04 23.71,-0.78 35.37,-1.67c35.37,-2.68 70.07,-0.38 104.63,2.52c4.2,0.34 8.27,1.04 12.23,1.8z" fill="#510B0B" id="svg_210"/>
    <path d="m897.63,9.78l18.08,0.94c-2.76,9.75 -5.97,19.49 -10.11,29.15c-4.76,11.18 -7.4,22.21 -5.7,33.7c1.5,9.63 2.25,19.32 2.32,28.95l-19.19,0.06c0,-1 -0.32,-1.97 -0.44,-2.95c-3.65,1.82 -5.21,3.7 -6.34,5.63c-6.39,11.11 -16.43,21.58 -30.98,31.15c-14.68,9.69 -29.48,19.4 -45.66,28.64c-26.61,15.23 -60.35,27.13 -99.3,36.2c-110.83,25.75 -228.25,31.1 -350.64,20.42c-52.49,-4.57 -100.86,-13.4 -146.84,-25.13c-69.12,-17.65 -144.82,-65.32 -158.12,-92.98c-0.64,-1.31 -1.58,-2.61 -2.39,-3.92c-1.13,0 -2.2,0 -3.33,0c0,0.62 -0.05,1.26 -0.05,1.91l-18.06,-0.08c0.37,-12.34 2.2,-24.75 2.57,-37.11c0.18,-5.05 -1.13,-10.14 -2.89,-15.14c-4.51,-13.28 -9.99,-26.49 -14.55,-39.74c-0.12,-0.45 -0.25,-0.89 -0.32,-1.31l18.38,-0.85c0.12,0.43 0.25,0.91 0.44,1.4c3.58,9.78 7.97,19.53 12.98,29.22c3.65,6.98 8.78,13.81 13.3,20.71c9.67,14.93 17.51,30.11 29.3,44.72c23.09,28.57 61.28,52.92 118.18,71.37c30.86,9.99 65.42,17.26 101.92,22.47c63.54,9.04 128.59,13.6 195.95,11.14c73.83,-2.71 143.46,-10.96 207,-27.54c26.96,-7.02 51.43,-15.48 70.94,-26.16c33.5,-18.3 61.97,-37.85 75.46,-60.78c10.34,-17.5 20.7,-34.97 32.86,-52.23c7.4,-10.5 12.23,-21.06 15.24,-31.85z" fill="#510B0B" id="svg_211"/>
    <path d="m814.9,29.53c7.28,1.61 3.08,3.98 1.88,5.99c-8.83,15.34 -22.08,29.57 -54.62,39.58c7.65,-10.57 44.97,-42.67 52.74,-45.57z" fill="#510B0B" id="svg_212"/>
    <path d="m786.16,99.28c7.6,-5.07 11.99,-11.16 26.22,-15.7c-1.88,20.83 -48.17,48.92 -99.22,60.17c8.78,-4.58 17.86,-9.1 26.27,-13.85c8.78,-4.94 17.32,-10.01 25.21,-15.21c7.67,-5.02 14.06,-10.37 21.51,-15.41z" fill="#510B0B" id="svg_213"/>
    <path d="m763.66,339.13c0,5.24 0,10.44 0,15.65c-0.32,0.02 -0.64,0.02 -0.89,0.02c0,-5.15 0,-10.33 0,-15.48c0.25,-0.08 0.57,-0.13 0.89,-0.19z" fill="#510B0B" id="svg_214"/>
    <path d="m752.17,90.2c-1.31,2.67 -1.56,4.32 -2.89,5.8c-18.87,20.58 -42.97,39.93 -78.27,56.27c-24.66,11.43 -52.51,21.33 -82.56,30.09c-32.98,9.63 -68.92,13.85 -109.08,11.3c-12.68,-0.81 -25.97,-0.65 -38.7,0.07c-35.94,2.12 -69.12,-0.88 -99.16,-9.31c-57.72,-16.16 -107.82,-35.58 -139.81,-62.33c-10.11,-8.4 -19.14,-17.05 -28.36,-25.66c-1.68,-1.55 -2,-3.38 -3.58,-6.36c20.71,11.81 39.84,22.35 58.09,33.19c17.56,10.41 38.01,19.55 61.66,27.38c15.37,5.11 31.23,9.9 46.72,14.95c46.92,15.25 100.42,18.2 156.95,15.65c34.74,-1.53 65.91,-6.87 93.71,-15.92c16.8,-5.47 33.92,-10.71 50.49,-16.29c21.32,-7.19 39.69,-15.61 55.75,-25.03c18.7,-11 38.01,-21.82 59.03,-33.8z" fill="#510B0B" id="svg_215"/>
    <path d="m737.93,237.08c2.57,48.6 1.58,95.58 -10.48,143.68c-14.48,-53.65 -11.15,-101.82 10.48,-143.68z" fill="#510B0B" id="svg_216"/>
    <path d="m731.6,52.15c7.15,15.27 -73.46,54.46 -145.58,61.91c49.63,-21.09 96.72,-41.13 145.58,-61.91z" fill="#510B0B" id="svg_217"/>
    <path d="m707.32,24.57c0.62,9.45 -25.85,26.01 -44.79,28.58c14.62,-9.37 29.55,-18.87 44.79,-28.58z" fill="#510B0B" id="svg_218"/>
    <path d="m615.05,513.33c1.26,32.09 2.51,64.19 3.77,96.31c-10.91,-32.09 -8.46,-64.26 -3.77,-96.31z" fill="#510B0B" id="svg_219"/>
    <path d="m596.67,262.36c10.68,35.63 23.72,71.22 11.54,107.39c-10.34,-35.61 -12.73,-71.47 -11.54,-107.39z" fill="#510B0B" id="svg_220"/>
    <path d="m584.06,117.85c4.83,2.97 1.45,5.24 -0.69,7.43c-8.78,9.1 -24.4,15.71 -43.02,21.14c-6.66,1.94 -14.62,3.15 -20.77,5.32c-7.77,2.8 -14.36,6.04 -25.65,6.25c-10.22,0.19 -20.45,1.13 -30.66,1.15c-10.73,0.04 -21.71,-0.19 -32.19,-1.13c-8.41,-0.78 -19.26,0.19 -23.46,-5.09c-1.13,-1.42 -8.21,-1.93 -12.41,-2.99c-23.46,-5.69 -43.73,-12.79 -55.2,-23.59c-2.51,-2.36 -3.38,-5.05 -4.96,-7.57c1.13,-0.32 2.32,-0.64 3.51,-0.96c3.82,1.39 7.97,2.65 11.42,4.21c28.73,13.18 65.81,19.91 105.13,24.77c4.71,0.59 10.66,0.14 15.62,-0.49c39.52,-4.88 75.9,-12.13 104.19,-25.43c2.39,-1.1 5.65,-1.88 9.15,-3.03z" fill="#510B0B" id="svg_221"/>
    <path d="m497.75,92.28c44.79,-13.02 94.4,-22.35 125.83,-43.05c-1.95,17.93 -62.28,44.93 -125.83,43.05z" fill="#510B0B" id="svg_222"/>
    <path d="m535.96,105.99c0.62,-0.14 1.88,0.21 2.89,0.32c-0.12,12.18 -42.15,23.29 -79.48,22.95c-37.52,-0.38 -76.78,-11.68 -75.78,-23.96c5.77,1.39 11.05,2.42 15.56,3.84c41.46,13.01 82.73,12.96 124.13,-0.08c3.89,-1.21 8.34,-2.1 12.68,-3.06z" fill="#510B0B" id="svg_223"/>
    <path d="m568.82,48.32c-10.71,16.54 -50.49,24.24 -75.9,15.19c25.03,-5.01 49.94,-10.01 75.9,-15.19z" fill="#510B0B" id="svg_224"/>
    <path d="m462.7,-12.76l-0.12,7.97c-10.98,0 -21.9,0.27 -33.05,0.7c-68.32,2.74 -136.82,4.92 -205.3,6.85c-22.59,0.64 -45.41,0.4 -68,-0.19c-24.2,-0.62 -48.35,-2.14 -73.26,-3.33c-14.48,0.4 -29.67,0.49 -44.6,1.36c-11.6,0.68 -15.24,2.29 -14.31,6.72l-18.38,0.85c-2.57,-9.99 6.9,-16.5 30.74,-19.05c24.52,-2.63 49.93,-3.73 74.89,-5.47c0.12,0.21 0.27,0.43 0.39,0.66c9.72,0.32 19.56,0.3 29.04,1.08c28.98,2.31 58.02,2.14 87.32,1.69c22.08,-0.33 44.28,0.07 66.43,-0.08c56.07,-0.36 112.21,0.11 168.23,0.24z" fill="#510B0B" id="svg_225"/>
    <path d="m429.01,63.43c-22.82,9.5 -62.09,2.19 -76.52,-15.22c26.66,5.28 51.63,10.26 76.52,15.22z" fill="#510B0B" id="svg_226"/>
    <path d="m356.81,73.74c21.02,6.75 44.35,12.13 69.07,18.75c-64.6,-1.55 -113.96,-17.92 -127.4,-40.87c18.82,7.21 37.39,15.35 58.34,22.12z" fill="#510B0B" id="svg_227"/>
    <path d="m324.89,262.17c1.82,35.8 -0.57,71.6 -9.97,108.84c-1.89,-2.65 -3.33,-3.94 -3.65,-5.28c-5.58,-23.13 -1.82,-46.21 3.7,-69.24c2.71,-11.45 6.59,-22.89 9.91,-34.32z" fill="#510B0B" id="svg_228"/>
    <path d="m306.19,100.73c9.47,4.05 18.45,8.32 28.04,12.69c-60.28,-3.86 -150.67,-44.33 -143.9,-60.48c13.24,2.27 20.45,7.27 29.42,11.32c9.28,4.18 17.76,8.69 27.23,12.79s19.76,7.89 29.6,11.81c9.91,3.94 20.01,7.78 29.6,11.87z" fill="#510B0B" id="svg_229"/>
    <path d="m307.13,513.22c4.66,32.09 6.85,64.18 -3.7,96.26c1.2,-32.1 2.44,-64.17 3.7,-96.26z" fill="#510B0B" id="svg_230"/>
    <path d="m215.12,24.65c14.92,9.58 29.92,19.17 44.92,28.74c-24.66,-6.75 -39.46,-16.39 -47.68,-27.93c0.89,-0.27 1.82,-0.53 2.76,-0.81z" fill="#510B0B" id="svg_231"/>
    <path d="m206.02,141.82c1.26,0.56 2.2,1.29 4.21,2.5c-51.5,-9.18 -94.67,-38.62 -100.12,-60.5c3.82,1.37 7.15,2.1 8.85,3.25c7.21,4.89 14.11,9.83 20.7,14.84c18.7,14.36 40.45,27.78 66.36,39.91z" fill="#510B0B" id="svg_232"/>
    <path d="m185,238.72c22.34,46 22.96,92.31 9.79,138.95c-12.41,-46.1 -12.8,-92.5 -9.79,-138.95z" fill="#510B0B" id="svg_233"/>
    <path d="m160.04,336.24c0,4.88 0,9.76 0,14.62c-0.37,0 -0.74,0.02 -1.13,0.02c0,-4.88 0,-9.76 0,-14.64c0.39,0 0.76,0 1.13,0z" fill="#510B0B" id="svg_234"/>
    <path d="m106.54,29.13c8.6,3.44 47.55,37.2 53.06,45.52c-30.29,-8.92 -60.58,-34.33 -53.06,-45.52z" fill="#510B0B" id="svg_235"/>
    <path d="m76.86,555.64c0.32,21.04 -3.7,42.11 -3.01,63.11c1.01,31.97 0.07,63.87 -4.2,95.79c-1.58,11.54 -3.01,23.18 -12.61,34.13c-11.92,13.63 -25.09,27.06 -37.69,40.57c-2.58,2.77 -5.4,5.56 -7.47,8.4c-1.26,1.78 -2,3.03 -2,4.03l-13.05,-0.3c0.05,-1.17 0.62,-2.44 1.68,-3.76c5.15,-6.2 6.46,-12.56 6.78,-19.07c0.12,-3.41 1.5,-6.93 3.75,-10.23c13.61,-19.96 15.56,-40.57 18.45,-61.1c4.02,-28.42 4.46,-56.86 3.82,-85.34c-0.44,-21.04 3.52,-42.08 3.13,-63.11c-0.69,-33.06 -3.63,-66.12 -4.96,-99.21c-1.06,-25.2 0.27,-50.45 -1.81,-75.62c-2.27,-27.13 1.88,-54.08 5.21,-81.12c4.57,-36.71 5.65,-73.5 -0.64,-110.27c-4.32,-25.6 -9.08,-51.22 -11.22,-76.86c-0.37,-4.71 -0.44,-9.44 -0.18,-14.19l18.06,0.08c0,0.49 0.05,0.94 0.12,1.42c5.28,29.31 9.22,58.64 16.18,87.86c9.79,40.84 11.17,81.71 9.79,122.69c-0.64,19.89 0.69,39.77 1.75,59.66c0.89,16.42 3.01,32.81 4.07,49.24c0.89,13.39 0.76,26.81 1.38,40.23c1.58,30.99 4.14,61.99 4.64,92.98z" fill="#510B0B" id="svg_236"/>
   </g>
  </g>
 </g>
</svg>