<svg width="800" height="229.99999999999997" xmlns="http://www.w3.org/2000/svg" xml:space="preserve" version="1.1">

 <g>
  <title>Layer 1</title>
  <g stroke-width="0" id="svg_100">
   <g id="svg_101">
    <path id="svg_102" fill="#FFB03B" d="m773.07131,46.65979c1.00953,9.23658 -1.83212,18.08898 -1.1591,27.18149c-1.45822,0.24012 -2.37428,0.48024 -3.29034,0.54427c-4.50552,0.33617 -5.27202,-0.04802 -5.01028,-3.92195c0.57955,-7.90792 1.533,-15.78383 2.35558,-23.80381c2.87904,0 4.74855,0 7.10413,0z"/>
    <path id="svg_103" fill="#FFB03B" d="m757.76003,56.79282c-0.18695,1.96898 -0.3739,3.80989 -0.56085,5.82689c-12.41354,1.13656 -24.22883,-0.46423 -36.64237,-1.8089c0.42999,-2.38518 0.84128,-4.61029 1.30866,-7.17156c11.90877,2.76937 23.81754,1.95297 35.89457,3.15357z"/>
    <path id="svg_104" fill="#FFB03B" d="m78.21225,53.59123c0.50477,2.59329 0.95345,4.8344 1.42083,7.23559c-12.41354,1.32866 -24.28492,2.89744 -36.69846,1.79289c-0.26173,-1.95297 -0.50477,-3.80989 -0.7665,-5.8429c12.03964,-1.15257 23.85493,-0.35217 36.04413,-3.18558z"/>
    <path id="svg_105" fill="#FFB03B" d="m33.81141,46.62778c0.91606,8.96445 3.57076,17.86487 2.31819,27.86983c-2.87904,-0.14407 -5.17854,-0.27214 -7.94541,-0.43221c0.85997,-9.36465 -2.35558,-18.23305 -1.17779,-27.43762c2.39297,0 4.29987,0 6.80501,0z"/>
    <path id="svg_106" fill="#C1272D" d="m712.574,55.03195c0.18695,0.27214 0.48607,0.49625 0.46738,0.70435c-0.87867,18.92139 -3.58946,37.65069 -7.85194,56.2199c-1.75734,7.60377 -4.91681,14.82336 -8.28192,21.99492c-2.82296,6.01899 -7.42195,10.53323 -13.61002,14.103c-12.80614,7.41168 -27.07049,11.52572 -42.04525,13.99094c-21.89195,3.6178 -43.24174,1.74487 -64.19893,-4.6263c-6.11329,-1.85692 -21.46196,-11.63778 -25.27576,-15.3036c3.00991,-4.37017 5.87026,-8.51623 8.65583,-12.56624c5.21593,2.70534 10.2636,5.55476 15.55431,8.03599c5.55244,2.6093 11.68443,2.83341 19.01291,2.51325c-11.46009,-5.21859 -22.00412,-10.02097 -32.3425,-14.72731c2.31819,-8.42018 4.54291,-16.53621 6.78632,-24.68425c18.48944,11.02947 37.95103,11.17355 58.12303,3.08953c-1.12171,0 -2.26211,0.04802 -3.38381,0c-11.23575,-0.54427 -22.52758,-0.76838 -33.72594,-1.77688c-7.34717,-0.67233 -14.35783,-2.96147 -21.40588,-6.06701c1.04692,-13.35063 1.49561,-26.73327 3.21556,-40.0999c0.07478,-0.73637 0.18695,-1.45672 0.28043,-2.19309c0.29912,0.04802 0.59824,0.08004 0.89736,0.12806c4.69247,0.68834 8.80539,1.48874 12.99309,1.8089c12.82483,0.99249 25.66836,1.76087 38.51188,2.6253c11.83399,0.81641 23.42495,-1.23261 35.14677,-2.017c8.63713,-0.57629 17.34904,-0.67233 26.02356,-0.89644c6.59937,-0.16008 13.19873,-0.17609 19.7981,-0.24012c2.22472,-0.03202 4.46813,-0.01601 6.65545,-0.01601zm-24.54665,31.56767c-3.32773,5.02649 -6.65545,10.05299 -9.98318,15.07948c5.68331,-3.88993 8.45018,-9.18856 9.98318,-15.07948zm-18.76987,1.55277c7.45934,-2.59329 13.74089,-10.59726 13.16134,-17.3366c-3.27164,6.97946 -7.27239,12.67829 -13.16134,17.3366zm7.64629,24.73227c-0.41129,-0.24012 -0.82258,-0.48024 -1.23388,-0.72036c-1.94429,1.98499 -3.77641,4.06602 -5.83287,5.95496c-5.45897,5.05851 -10.78707,10.24508 -16.58254,14.99944c-8.24453,6.75535 -18.35858,9.94093 -29.72519,10.42117c-6.65545,0.27214 -13.29221,0.78439 -19.94766,1.2006c3.77641,1.84091 7.6276,3.6178 11.74052,4.46622c15.79735,3.24961 29.59433,-0.52826 41.63396,-9.4767c5.79548,-4.30614 10.17013,-9.58876 13.61002,-15.41565c2.22472,-3.76187 4.22509,-7.61978 6.33764,-11.42967zm-7.66499,-15.07948c-0.33651,-0.17609 -0.67302,-0.35217 -1.00953,-0.54427c-0.63563,0.59229 -1.27127,1.18459 -1.9069,1.76087c-7.16022,6.40318 -15.19911,11.82987 -23.92971,16.61625c-17.36774,9.54074 -36.13761,11.52572 -56.02918,8.38816c10.63751,7.44369 22.35933,8.45219 33.03422,6.51523c19.66723,-3.56977 34.95982,-12.80636 46.00861,-27.18149c1.38344,-1.79289 2.56123,-3.69784 3.83249,-5.55476zm-14.05871,-20.10598c-3.32773,1.60079 -6.73023,3.08953 -9.96448,4.81839c-8.3567,4.53025 -17.40513,6.93144 -27.31352,7.15555c-4.35596,0.11206 -8.69322,0.64032 -13.47916,1.02451c17.29296,12.43817 47.50422,0.25613 50.75717,-12.99845zm-32.47337,-1.15257c0.50477,-0.65633 0.54216,-1.60079 1.06562,-3.2336c-2.31819,0.97648 -3.66424,1.66483 -5.12245,2.12906c-3.60815,1.13656 -7.17891,2.51325 -10.89924,3.18558c-6.43111,1.13656 -12.97439,1.82491 -19.46159,2.70534c8.48757,3.28163 16.82558,3.34566 25.21967,0.92846c3.75771,-1.07253 6.95457,-2.88143 9.19798,-5.71484zm-25.63097,15.83186c-0.24304,-0.1921 -0.44868,-0.48024 -0.71041,-0.52826c-5.96373,-1.05652 -11.92747,-2.09704 -18.43336,-3.2336c6.15068,6.35515 14.02132,7.84389 19.14377,3.76187z"/>
    <path id="svg_107" fill="#C1272D" d="m566.93926,51.95842c0,1.07253 0.14956,2.24111 -0.0187,3.37768c-1.85081,12.31011 -3.75771,24.62022 -5.60853,36.93033c-1.86951,12.47019 -6.61806,24.13998 -13.40438,35.21748c-6.97327,11.42967 -17.77903,19.83384 -30.0617,26.97339c-16.26473,9.4767 -34.39896,14.88739 -53.59882,18.00894c-7.27239,1.18459 -14.4513,2.75337 -21.74239,3.88993c-4.74855,0.75237 -9.57189,1.16858 -14.37652,1.45672c-9.47841,0.54427 -18.97552,1.2166 -28.47262,1.2166c-9.32885,0 -18.6577,-0.72036 -27.98655,-1.23261c-4.169,-0.24012 -8.39409,-0.46423 -12.46962,-1.2006c-14.32044,-2.6253 -28.79044,-4.91444 -42.84914,-8.35615c-21.66761,-5.31464 -40.26922,-15.27158 -55.41224,-29.69474c-5.08506,-4.85041 -8.71191,-10.54924 -11.92747,-16.47218c-6.52459,-12.02197 -9.81492,-24.74828 -11.53487,-37.85879c-1.1591,-8.78836 -2.54253,-17.56072 -3.86988,-26.33307c-0.18695,-1.2166 -0.35521,-2.4172 -0.54216,-3.6338c-0.11217,-0.65633 -0.16826,-1.32866 -0.24304,-1.95297c5.73939,0.28814 11.01141,0.70435 16.28342,0.78439c24.80838,0.36818 49.63546,0.67233 74.44384,0.94447c13.23612,0.14407 26.39747,-0.78439 39.52142,-2.14506c9.1232,-0.94447 18.33988,-1.07253 27.44439,-2.04902c3.27164,-0.35217 6.4872,-0.49625 9.70275,-0.46423c3.15947,0.01601 6.31894,0.1921 9.5158,0.49625c35.42719,3.39368 70.96656,5.09053 106.63679,4.14606c13.83437,-0.36818 27.70612,-0.59229 41.54049,-0.99249c2.87904,-0.09605 5.73939,-0.65633 9.02973,-1.05652zm-32.69771,35.21748c-0.29912,-0.04802 -0.61694,-0.09605 -0.91606,-0.16008c-3.27164,5.05851 -6.59937,10.08501 -9.81492,15.15952c-3.38381,5.37867 -7.55282,10.24508 -12.60049,14.59925c-11.89008,10.26109 -25.1075,18.77732 -40.28792,25.37259c-18.84465,8.19607 -38.66144,13.03047 -59.58125,14.47118c-23.35017,1.6168 -45.95253,-1.60079 -67.65753,-9.10852c-6.41242,-2.2091 -12.65658,-4.86642 -18.73248,-7.69982c-21.79847,-10.14904 -40.15705,-23.38761 -51.3741,-42.90129c-1.8882,-3.28163 -4.29987,-6.35515 -6.44981,-9.50872c-0.48607,1.15257 -0.44868,2.11305 -0.13087,2.99349c2.00037,5.53875 3.73902,11.15754 6.20677,16.53621c1.81342,3.93795 4.05683,7.92393 7.08544,11.23758c8.768,9.57275 18.50814,18.45716 30.22996,25.45263c19.55506,11.63778 40.77399,19.70578 64.61023,22.85935c24.90186,3.29764 49.22417,1.82491 73.0791,-4.61029c28.09872,-7.58777 51.18715,-21.73879 70.01311,-41.09239c4.169,-4.27412 7.40326,-9.04449 9.55319,-14.27909c1.98168,-4.81839 3.73902,-9.70081 5.51505,-14.56723c0.56085,-1.55277 0.84128,-3.16957 1.25257,-4.75436zm-24.34101,53.01831c13.87176,-3.24961 27.63134,-18.16902 29.05217,-31.74375c-4.69247,6.35515 -8.33801,12.23007 -13.04917,17.36862c-4.63638,5.05851 -10.35708,9.38066 -16.003,14.37513zm-14.0774,-47.22344c8.71191,-1.10455 18.09685,-9.38066 18.43336,-14.21506c-5.60853,4.32215 -12.02094,9.2686 -18.43336,14.21506zm-3.70163,19.65776c3.45859,-3.92195 6.4685,-8.11603 7.68368,-13.28659c-9.02973,7.71583 -18.13424,15.36763 -29.12695,20.87436c-11.06749,5.57076 -22.56497,10.50121 -34.13723,15.84787c1.55169,0.1921 3.06599,0.49625 4.5803,0.56028c5.85156,0.25613 11.59096,-0.32016 17.04992,-2.19309c13.59133,-4.65831 25.1075,-11.74983 33.95028,-21.80282zm-30.4543,-10.42117c12.22659,-3.12155 28.95869,-17.64076 29.23912,-26.25303c-10.18882,9.12453 -19.64854,17.62475 -29.23912,26.25303zm-3.62685,-8.14804c-1.79473,1.37668 -3.64554,2.68933 -5.38419,4.13005c-9.45971,7.77986 -20.45243,13.41466 -33.07161,16.40814c-23.35017,5.57076 -15.77865,5.52274 -38.811,0.08004c-12.76875,-3.0255 -23.92971,-8.70832 -33.4829,-16.61625c-1.70125,-1.4087 -3.53337,-2.70534 -6.0759,-4.65831c0.41129,1.39269 0.50477,1.90495 0.71041,2.36918c6.0759,13.19055 17.44252,21.43464 32.84727,26.09295c8.97364,2.73736 18.20902,3.04151 27.57526,3.13756c12.24528,0.11206 23.5932,-2.4172 34.17462,-7.52373c10.80576,-5.20258 18.00337,-13.03047 21.51805,-23.41962zm-43.07348,6.78737c11.55356,1.74487 21.29371,-1.88894 24.7336,-9.01247c-8.30062,3.0255 -16.22734,5.90693 -24.7336,9.01247zm-54.73922,-9.50872c3.38381,7.58777 13.46046,11.31762 24.45318,8.83639c-4.07553,-1.15257 -8.26323,-2.11305 -12.22659,-3.53776c-4.01944,-1.45672 -7.81455,-3.36167 -12.22659,-5.29863zm-13.55394,44.29398c5.42158,1.47273 11.25444,1.74487 17.27426,0.2081c-4.24379,-1.8089 -8.13236,-3.44171 -12.00225,-5.09053c-3.73902,-1.60079 -7.51543,-3.15357 -11.17966,-4.86642c-3.83249,-1.76087 -7.64629,-3.56977 -11.29183,-5.57076c-3.62685,-2.017 -7.16022,-4.21009 -10.56273,-6.53124c-3.27164,-2.2251 -6.26285,-4.73835 -9.42232,-7.07551c-3.14077,-2.32115 -5.27202,-5.60278 -9.25407,-7.34765c-0.16826,0.51225 -0.26173,0.64032 -0.24304,0.75237c0.07478,0.41621 0.11217,0.84842 0.31782,1.2006c9.38493,17.44866 25.23837,28.59019 46.36382,34.32103zm-8.61844,-33.58467c-9.44102,-8.62828 -18.41466,-16.85637 -27.407,-25.03643c-0.24304,-0.22411 -0.87867,-0.11206 -1.32735,-0.17609c-0.24304,7.07551 16.39559,21.93088 28.73435,25.21251zm-34.09984,-9.15654c-6.13199,-5.26661 -12.26398,-10.53323 -18.39597,-15.81585c-0.24304,0.2081 -0.46738,0.4002 -0.71041,0.6083c3.75771,7.29962 9.27276,13.12651 18.32119,15.97593c0.26173,-0.25613 0.52346,-0.51225 0.78519,-0.76838zm-13.14265,47.65565c-5.44027,-4.70634 -11.4227,-9.14054 -16.24603,-14.34312c-4.9355,-5.31464 -8.73061,-11.41366 -13.29221,-17.5287c1.5143,13.27059 15.32997,29.37458 29.53824,31.87182z"/>
    <path id="svg_108" fill="#C1272D" d="m248.33756,142.19521c-0.59824,0.59229 -1.04692,1.16858 -1.64517,1.60079c-11.60965,8.61227 -24.28492,15.07948 -39.76445,17.7208c-28.41653,4.8344 -55.43094,1.88894 -81.32364,-9.02848c-2.59862,-1.08854 -5.02898,-2.48123 -7.51543,-3.74586c-7.16022,-3.66582 -12.09572,-8.80437 -15.29258,-15.49569c-4.9355,-10.29311 -8.0015,-20.92238 -10.13274,-31.85581c-2.97252,-15.27158 -4.91681,-30.59118 -5.47766,-46.19893c0.3926,-0.1921 0.54216,-0.32016 0.67302,-0.32016c22.49019,1.0085 45.12994,-0.75237 67.50797,2.70534c4.09422,0.64032 8.3567,0.84842 12.50701,0.73637c11.59096,-0.33617 23.20061,-0.73637 34.75417,-1.55277c8.03889,-0.56028 16.02169,-1.8089 24.45318,-2.8174c0.11217,-0.01601 0.22434,-0.03202 0.33651,-0.04802c0.24304,1.42471 0.61694,2.97748 0.85997,4.57827c0.07478,0.54427 0.14956,1.07253 0.18695,1.6168c0.84128,10.86939 1.49561,21.77081 2.43036,32.6402c0.22434,2.48123 -0.59824,3.84191 -3.27164,4.72234c-8.61844,2.8174 -17.33035,5.2346 -26.6405,5.53875c-9.60928,0.30415 -19.19986,0.65633 -29.07086,1.0085c20.43373,7.77986 39.98879,7.89192 58.73997,-3.36167c2.22472,8.13204 4.43074,16.21605 6.76762,24.74828c-10.31969,4.69033 -20.9198,9.49271 -32.19294,14.61525c6.95457,0.51225 13.10526,0.2081 18.71378,-2.35317c5.3468,-2.46522 10.45055,-5.33065 15.75996,-8.08401c2.78557,4.06602 5.68331,8.30812 8.63713,12.63027zm-45.74688,-49.9608c5.81417,4.14606 14.18957,2.59329 18.99421,-3.53776c-6.4872,1.2006 -12.60049,2.35317 -18.99421,3.53776zm-8.31931,38.83527c6.65545,-0.6083 12.63788,-2.65732 18.02207,-6.49923c-33.66985,5.20258 -58.75866,-7.77986 -81.23016,-27.13347c0.22434,0.57629 0.35521,1.2006 0.69172,1.71285c9.94579,15.33561 24.7523,25.50066 44.36345,30.52715c5.92634,1.53676 12.02094,1.95297 18.15293,1.39269zm18.04076,-49.3685c-4.69247,-0.83241 -8.59974,-1.58479 -12.5444,-2.2091c-3.94466,-0.62431 -8.02019,-0.8004 -11.85269,-1.76087c-3.75771,-0.92846 -7.25369,-2.57728 -11.77791,-4.25811c1.85081,4.32215 3.77641,6.29112 7.96411,7.87591c9.04842,3.4257 18.22771,3.55376 28.21089,0.35217zm-17.1247,9.20457c-8.78669,-0.96048 -17.94729,-1.02451 -26.41616,-3.16957c-8.43149,-2.12906 -16.17125,-6.35515 -24.97664,-9.98896c6.00112,14.72731 36.34325,24.89235 51.3928,13.15853zm1.5143,53.86673c-6.41242,-0.41621 -12.28267,-1.04052 -18.15293,-1.12056c-14.18957,-0.2081 -26.00487,-4.86642 -35.63284,-13.59075c-5.75809,-5.21859 -11.16097,-10.70932 -16.7321,-16.07198c-0.67302,-0.64032 -1.43952,-1.2006 -2.6547,-2.19309c0.11217,1.02451 0.05609,1.44072 0.20565,1.77688c3.25295,7.2516 7.30978,14.15102 12.937,20.26606c6.54328,7.13954 14.78782,12.2941 25.01403,14.88739c12.13311,3.07353 23.70537,2.00099 35.0159,-3.95396zm-65.8628,-56.50805c-2.52384,-2.6253 -5.29071,-5.10653 -7.51543,-7.90792c-2.14994,-2.70534 -3.72032,-5.71484 -5.53375,-8.59627c1.28996,7.26761 4.78594,13.3026 13.04917,16.50419zm-9.01103,13.19055c-3.23425,-4.94645 -6.4685,-9.8769 -9.70275,-14.82336c-0.29912,0.14407 -0.57955,0.28814 -0.87867,0.44822c2.52384,5.28262 4.91681,10.62928 10.58142,14.37513z"/>
   </g>
   <g id="svg_109">
    <path id="svg_110" fill="#510B0B" d="m778.45549,45.68331c0.22434,2.75337 0.33651,5.50673 0.26173,8.2601c-0.18695,5.92294 -0.54216,11.84588 -0.82258,17.75281c-0.05609,1.37668 0.07478,2.78538 -0.16826,4.13005c-0.48607,2.72135 -1.96298,3.84191 -5.15984,3.98598c-2.72948,0.11206 -5.47766,0.32016 -8.18845,0.11206c-5.02898,-0.41621 -6.76762,-2.00099 -7.32847,-6.25911c-0.26173,-1.90495 -0.28043,-3.8259 -0.44868,-6.29112c-12.1892,0.54427 -24.19144,-0.78439 -36.43673,0.32016c-0.3926,4.11404 -0.57955,7.81188 -1.1591,11.46169c-2.16863,13.67078 -4.01944,27.38959 -6.93588,40.94832c-1.45822,6.83539 -4.74855,13.43067 -7.59021,20.00993c-2.20602,5.17057 -6.39372,9.22058 -11.404,12.61426c-9.08581,6.16306 -19.25594,10.58125 -30.17387,13.73482c-14.28305,4.13005 -28.97739,6.56326 -44.10171,6.57927c-15.25519,0.01601 -30.09909,-2.27313 -44.5504,-6.56326c-10.30099,-3.07353 -18.30249,-9.10852 -26.82745,-14.53521c-1.00953,-0.64032 -2.00037,-1.34467 -3.23425,-2.19309c-1.47691,1.2006 -2.86035,2.33716 -4.26248,3.44171c-17.25557,13.60675 -36.77324,23.67575 -59.86167,28.17398c-11.31053,2.2091 -22.58367,4.51424 -33.93159,6.56326c-12.03964,2.17708 -24.28492,2.52926 -36.5302,2.73736c-15.81605,0.25613 -31.66948,0.51225 -47.29857,-1.64882c-13.64741,-1.88894 -27.05179,-5.01049 -40.62443,-7.33164c-20.13461,-3.40969 -37.33409,-11.86189 -53.35578,-22.33108c-4.33726,-2.83341 -8.18845,-6.21108 -12.43223,-9.4607c-3.86988,2.48123 -7.87063,4.78638 -11.51617,7.44369c-8.97364,6.54725 -19.61115,9.95694 -30.79081,12.34213c-25.93009,5.52274 -51.48627,4.034 -76.64986,-3.29764c-10.58142,-3.07353 -20.47112,-7.39567 -29.35129,-13.27059c-5.88895,-3.88993 -10.07665,-8.80437 -12.91831,-14.69529c-5.66461,-11.71782 -8.58105,-23.94789 -10.18882,-36.49811c-0.97214,-7.68381 -2.37428,-15.3196 -3.45859,-22.98741c-0.48607,-3.53776 -0.61694,-7.10753 -0.97214,-11.14153c-12.1705,-1.39269 -24.19144,0.27214 -36.56759,-0.46423c-0.18695,2.44922 -0.29912,4.46622 -0.50477,6.48322c-0.42999,3.96997 -1.85081,5.52274 -6.4685,5.97096c-3.47729,0.32016 -7.08544,0.17609 -10.56273,-0.24012c-1.21518,-0.14407 -2.37428,-1.6168 -3.23425,-2.67333c-0.48607,-0.59229 -0.3926,-1.58479 -0.42999,-2.4172c-0.35521,-7.71583 -0.69172,-15.41565 -1.00953,-23.13148c-0.0187,-0.83241 0,-1.66483 0.03739,-2.48123c0.26173,-5.57076 1.1591,-7.55575 7.55282,-8.2601c1.42083,-0.14407 2.74818,-0.76838 4.15031,-1.10455c4.67377,-1.10455 7.55282,0.83241 7.45934,4.94645c-0.03739,1.45672 0.14956,2.92945 0.24304,4.77037c12.00225,0 23.55581,0 35.14677,0c2.74818,-5.36266 3.92597,-5.81088 10.99271,-5.33065c7.235,0.48024 14.50739,1.15257 21.705,0.88044c15.89083,-0.62431 31.53861,0.84842 47.16771,2.94546c5.702,0.75237 11.53487,1.15257 17.31165,1.24862c13.36699,0.25613 26.75267,0.1921 40.11966,0.35217c4.31857,0.04802 8.63713,0.41621 13.25482,0.65633l0.67302,4.00199c-8.43149,1.0085 -16.41429,2.25712 -24.45318,2.8174c-11.55356,0.81641 -23.16321,1.2166 -34.75417,1.55277c-4.15031,0.11206 -8.41279,-0.09605 -12.50701,-0.73637c-22.37802,-3.45772 -45.01777,-1.69684 -67.50797,-2.70534c-0.13087,0 -0.28043,0.12806 -0.67302,0.32016c0.56085,15.60775 2.50514,30.92735 5.47766,46.19893c2.13124,10.93343 5.19723,21.5627 10.13274,31.85581c3.19686,6.69132 8.13236,11.82987 15.29258,15.49569c2.48645,1.26463 4.91681,2.65732 7.51543,3.74586c25.8927,10.91742 52.9071,13.86288 81.32364,9.02848c15.47953,-2.64131 28.1548,-9.10852 39.76445,-17.7208c0.59824,-0.43221 1.04692,-1.0085 1.64517,-1.60079c-2.95382,-4.32215 -5.85156,-8.56425 -8.63713,-12.63027c-5.30941,2.75337 -10.41316,5.61879 -15.75996,8.08401c-5.60853,2.56127 -11.75921,2.86542 -18.71378,2.35317c11.27314,-5.12254 21.87325,-9.92493 32.19294,-14.61525c-2.33689,-8.53223 -4.54291,-16.61625 -6.76762,-24.74828c-18.75117,11.25359 -38.30624,11.14153 -58.73997,3.36167c9.87101,-0.35217 19.46159,-0.70435 29.07086,-1.0085c9.31015,-0.30415 18.02207,-2.72135 26.6405,-5.53875c2.6734,-0.88044 3.49598,-2.24111 3.27164,-4.72234c-0.93475,-10.86939 -1.58908,-21.77081 -2.43036,-32.6402c-0.03739,-0.54427 -0.11217,-1.07253 -0.18695,-1.6168l5.3281,-0.59229c1.32735,8.77235 2.71079,17.54471 3.86988,26.33307c1.71995,13.11051 5.01028,25.83682 11.53487,37.85879c3.21556,5.92294 6.8424,11.62177 11.92747,16.47218c15.14302,14.42316 33.74464,24.3801 55.41224,29.69474c14.05871,3.44171 28.52871,5.73084 42.84914,8.35615c4.07553,0.73637 8.30062,0.96048 12.46962,1.2006c9.32885,0.51225 18.6577,1.23261 27.98655,1.23261c9.49711,0 18.99421,-0.67233 28.47262,-1.2166c4.80464,-0.28814 9.62797,-0.70435 14.37652,-1.45672c7.29108,-1.13656 14.47,-2.70534 21.74239,-3.88993c19.19986,-3.12155 37.33409,-8.53223 53.59882,-18.00894c12.28267,-7.13954 23.08843,-15.54371 30.0617,-26.97339c6.78632,-11.0775 11.53487,-22.74729 13.40438,-35.21748c1.85081,-12.31011 3.75771,-24.62022 5.60853,-36.93033l5.3468,0.49625c-1.71995,13.36663 -2.16863,26.74928 -3.21556,40.0999c7.04805,3.10554 14.05871,5.39468 21.40588,6.06701c11.19836,1.0085 22.49019,1.23261 33.72594,1.77688c1.12171,0.04802 2.26211,0 3.38381,0c-20.172,8.08401 -39.63359,7.93994 -58.12303,-3.08953c-2.24341,8.14804 -4.46813,16.26407 -6.78632,24.68425c10.33838,4.70634 20.88241,9.50872 32.3425,14.72731c-7.32847,0.32016 -13.46046,0.09605 -19.01291,-2.51325c-5.29071,-2.48123 -10.33838,-5.33065 -15.55431,-8.03599c-2.78557,4.05001 -5.64592,8.19607 -8.65583,12.56624c3.8138,3.66582 19.16247,13.44667 25.27576,15.3036c20.95719,6.37116 42.30699,8.24409 64.19893,4.6263c14.97477,-2.46522 29.23912,-6.57927 42.04525,-13.99094c6.18807,-3.56977 10.78707,-8.08401 13.61002,-14.103c3.36512,-7.17156 6.52459,-14.39114 8.28192,-21.99492c4.26248,-18.56922 6.97327,-37.29851 7.85194,-56.2199c0.0187,-0.2081 -0.28043,-0.43221 -0.46738,-0.70435c-2.18733,0 -4.43074,-0.01601 -6.65545,0.01601c-6.59937,0.06403 -13.19873,0.08004 -19.7981,0.24012c-8.67452,0.22411 -17.38643,0.32016 -26.02356,0.89644c-11.72182,0.78439 -23.31278,2.83341 -35.14677,2.017c-12.84353,-0.86443 -25.68705,-1.63281 -38.51188,-2.6253c-4.1877,-0.32016 -8.30062,-1.12056 -12.99309,-1.8089l0.78519,-3.93795c0.26173,0.04802 0.50477,0.08004 0.72911,0.08004c18.35858,-0.32016 36.71715,-0.41621 55.07573,-1.07253c8.82408,-0.32016 17.61077,-1.55277 26.37877,-2.64131c9.10451,-1.13656 18.22771,-1.56878 27.44439,-1.56878c9.98318,0 19.96635,-0.35217 29.93084,-0.84842c6.39372,-0.30415 7.96411,0.25613 10.2823,5.34665c11.60965,0 23.25669,0 35.33372,0c0.09348,-1.77688 0.24304,-3.10554 0.24304,-4.4342c0,-4.69033 2.6734,-6.37116 8.05758,-5.02649c1.86951,0.46423 3.70163,0.96048 5.58983,1.29664c3.08469,0.52826 4.9355,2.04902 5.15984,4.72234zm-6.54328,28.15798c-0.67302,-9.09251 2.16863,-17.94491 1.1591,-27.18149c-2.35558,0 -4.22509,0 -7.10413,0c-0.82258,8.01998 -1.77603,15.89589 -2.35558,23.80381c-0.26173,3.87392 0.50477,4.25811 5.01028,3.92195c0.91606,-0.06403 1.83212,-0.30415 3.29034,-0.54427zm-14.71303,-11.22157c0.18695,-2.017 0.3739,-3.85791 0.56085,-5.82689c-12.07703,-1.2006 -23.9858,-0.38419 -35.89457,-3.15357c-0.46738,2.56127 -0.87867,4.78638 -1.30866,7.17156c12.41354,1.34467 24.22883,2.94546 36.64237,1.8089zm-677.5661,-1.79289c-0.46738,-2.40119 -0.91606,-4.6423 -1.42083,-7.23559c-12.1892,2.83341 -24.00449,2.03301 -36.04413,3.18558c0.26173,2.03301 0.50477,3.88993 0.7665,5.8429c12.41354,1.10455 24.28492,-0.46423 36.69846,-1.79289zm-43.50347,13.67078c1.25257,-10.00497 -1.40213,-18.90538 -2.31819,-27.86983c-2.50514,0 -4.41204,0 -6.80501,0c-1.17779,9.20457 2.03776,18.07297 1.17779,27.43762c2.76687,0.16008 5.06637,0.28814 7.94541,0.43221z"/>
    <path id="svg_111" fill="#510B0B" d="m678.04417,101.6791c3.32773,-5.02649 6.65545,-10.05299 9.98318,-15.07948c-1.533,5.89092 -4.29987,11.18955 -9.98318,15.07948z"/>
    <path id="svg_112" fill="#510B0B" d="m682.41882,70.81578c0.57955,6.73934 -5.702,14.74332 -13.16134,17.3366c5.88895,-4.65831 9.8897,-10.35714 13.16134,-17.3366z"/>
    <path id="svg_113" fill="#510B0B" d="m675.66989,112.1643c0.41129,0.24012 0.82258,0.48024 1.23388,0.72036c-2.11255,3.80989 -4.11292,7.66781 -6.33764,11.42967c-3.4399,5.82689 -7.81455,11.10951 -13.61002,15.41565c-12.03964,8.94844 -25.83661,12.72632 -41.63396,9.4767c-4.11292,-0.84842 -7.96411,-2.6253 -11.74052,-4.46622c6.65545,-0.41621 13.29221,-0.92846 19.94766,-1.2006c11.36661,-0.48024 21.48066,-3.66582 29.72519,-10.42117c5.79548,-4.75436 11.12358,-9.94093 16.58254,-14.99944c2.05646,-1.88894 3.88858,-3.96997 5.83287,-5.95496z"/>
    <path id="svg_114" fill="#510B0B" d="m668.22925,97.26091c0.33651,0.1921 0.67302,0.36818 1.00953,0.54427c-1.27127,1.85692 -2.44906,3.76187 -3.83249,5.55476c-11.0488,14.37513 -26.34138,23.61172 -46.00861,27.18149c-10.6749,1.93696 -22.39672,0.92846 -33.03422,-6.51523c19.89157,3.13756 38.66144,1.15257 56.02918,-8.38816c8.73061,-4.78638 16.76949,-10.21307 23.92971,-16.61625c0.63563,-0.57629 1.27127,-1.16858 1.9069,-1.76087z"/>
    <path id="svg_115" fill="#510B0B" d="m645.21559,82.51759c3.23425,-1.72886 6.63676,-3.2176 9.96448,-4.81839c-3.25295,13.25458 -33.46421,25.43662 -50.75717,12.99845c4.78594,-0.38419 9.1232,-0.91245 13.47916,-1.02451c9.9084,-0.22411 18.95682,-2.6253 27.31352,-7.15555z"/>
    <path id="svg_116" fill="#510B0B" d="m623.77233,73.31302c-0.52346,1.63281 -0.56085,2.57728 -1.06562,3.2336c-2.24341,2.83341 -5.44027,4.6423 -9.19798,5.71484c-8.39409,2.4172 -16.7321,2.35317 -25.21967,-0.92846c6.4872,-0.88044 13.03048,-1.56878 19.46159,-2.70534c3.72032,-0.67233 7.29108,-2.04902 10.89924,-3.18558c1.45822,-0.46423 2.80426,-1.15257 5.12245,-2.12906z"/>
    <path id="svg_117" fill="#510B0B" d="m596.36533,91.85022c0.26173,0.04802 0.46738,0.33617 0.71041,0.52826c-5.12245,4.08203 -12.99309,2.59329 -19.14377,-3.76187c6.50589,1.13656 12.46962,2.17708 18.43336,3.2336z"/>
    <path id="svg_118" fill="#510B0B" d="m574.23034,49.82936l-0.78519,3.93795c-0.29912,-0.04802 -0.59824,-0.08004 -0.89736,-0.12806c-0.09348,0.73637 -0.20565,1.45672 -0.28043,2.19309l-5.3468,-0.49625c0.16826,-1.13656 0.0187,-2.30514 0.0187,-3.37768c-3.29034,0.4002 -6.15068,0.96048 -9.02973,1.05652c-13.83437,0.4002 -27.70612,0.62431 -41.54049,0.99249c-35.67023,0.94447 -71.20959,-0.75237 -106.63679,-4.14606c-3.19686,-0.30415 -6.35633,-0.48024 -9.5158,-0.49625l0.05609,-3.76187c0.54216,0 1.06562,-0.01601 1.58908,-0.06403c15.46084,-1.10455 30.86559,-0.84842 46.36382,-0.1921c16.05908,0.67233 32.21164,0.28814 48.3268,-0.14407c18.99421,-0.52826 37.95103,-1.64882 56.94524,-2.38518c4.33726,-0.16008 8.69322,0.09605 13.03048,0.33617c6.20677,0.32016 6.93588,1.05652 6.76762,6.49923c0.35521,0.06403 0.65433,0.12806 0.93475,0.17609z"/>
    <path id="svg_119" fill="#510B0B" d="m533.32549,87.01582c0.29912,0.06403 0.61694,0.11206 0.91606,0.16008c-0.41129,1.58479 -0.69172,3.20159 -1.25257,4.75436c-1.77603,4.86642 -3.53337,9.74884 -5.51505,14.56723c-2.14994,5.2346 -5.38419,10.00497 -9.55319,14.27909c-18.82595,19.35361 -41.91439,33.50463 -70.01311,41.09239c-23.85493,6.43519 -48.17724,7.90792 -73.0791,4.61029c-23.83624,-3.15357 -45.05516,-11.22157 -64.61023,-22.85935c-11.72182,-6.99547 -21.46196,-15.87988 -30.22996,-25.45263c-3.0286,-3.31364 -5.27202,-7.29962 -7.08544,-11.23758c-2.46775,-5.37867 -4.20639,-10.99746 -6.20677,-16.53621c-0.31782,-0.88044 -0.35521,-1.84091 0.13087,-2.99349c2.14994,3.15357 4.5616,6.22709 6.44981,9.50872c11.21705,19.51368 29.57563,32.75226 51.3741,42.90129c6.0759,2.83341 12.32006,5.49073 18.73248,7.69982c21.705,7.50773 44.30736,10.72532 67.65753,9.10852c20.9198,-1.44072 40.7366,-6.27511 59.58125,-14.47118c15.18041,-6.59527 28.39784,-15.1115 40.28792,-25.37259c5.04767,-4.35416 9.21668,-9.22058 12.60049,-14.59925c3.21556,-5.07452 6.54328,-10.10101 9.81492,-15.15952z"/>
    <path id="svg_120" fill="#510B0B" d="m538.95271,108.45046c-1.42083,13.57474 -15.18041,28.49414 -29.05217,31.74375c5.64592,-4.99448 11.36661,-9.31662 16.003,-14.37513c4.71116,-5.13855 8.3567,-11.01347 13.04917,-17.36862z"/>
    <path id="svg_121" fill="#510B0B" d="m514.2565,78.75572c-0.33651,4.8344 -9.72145,13.11051 -18.43336,14.21506c6.41242,-4.94645 12.82483,-9.89291 18.43336,-14.21506z"/>
    <path id="svg_122" fill="#510B0B" d="m499.80519,99.34194c-1.21518,5.17057 -4.22509,9.36465 -7.68368,13.28659c-8.84278,10.05299 -20.35895,17.14451 -33.95028,21.80282c-5.45897,1.87293 -11.19836,2.44922 -17.04992,2.19309c-1.5143,-0.06403 -3.0286,-0.36818 -4.5803,-0.56028c11.57226,-5.34665 23.06974,-10.2771 34.13723,-15.84787c10.99271,-5.50673 20.09722,-13.15853 29.12695,-20.87436z"/>
    <path id="svg_123" fill="#510B0B" d="m490.90633,75.95433c-0.28043,8.61227 -17.01253,23.13148 -29.23912,26.25303c9.59058,-8.62828 19.0503,-17.1285 29.23912,-26.25303z"/>
    <path id="svg_124" fill="#510B0B" d="m452.65618,98.18937c1.73864,-1.44072 3.58946,-2.75337 5.38419,-4.13005c-3.51468,10.38916 -10.71229,18.21704 -21.51805,23.41962c-10.58142,5.10653 -21.92934,7.63579 -34.17462,7.52373c-9.36624,-0.09605 -18.60161,-0.4002 -27.57526,-3.13756c-15.40475,-4.65831 -26.77137,-12.9024 -32.84727,-26.09295c-0.20565,-0.46423 -0.29912,-0.97648 -0.71041,-2.36918c2.54253,1.95297 4.37465,3.24961 6.0759,4.65831c9.55319,7.90792 20.71416,13.59075 33.4829,16.61625c23.03235,5.4427 15.46084,5.49073 38.811,-0.08004c12.61918,-2.99349 23.6119,-8.62828 33.07161,-16.40814z"/>
    <path id="svg_125" fill="#510B0B" d="m439.70048,91.83421c-3.4399,7.12354 -13.18004,10.75734 -24.7336,9.01247c8.50627,-3.10554 16.43298,-5.98697 24.7336,-9.01247z"/>
    <path id="svg_126" fill="#510B0B" d="m400.27254,45.60327l-0.05609,3.76187c-3.21556,-0.03202 -6.43111,0.11206 -9.70275,0.46423c-9.10451,0.97648 -18.32119,1.10455 -27.44439,2.04902c-13.12395,1.36068 -26.28529,2.28914 -39.52142,2.14506c-24.80838,-0.27214 -49.63546,-0.57629 -74.44384,-0.94447c-5.27202,-0.08004 -10.54403,-0.49625 -16.28342,-0.78439c0.07478,0.62431 0.13087,1.29664 0.24304,1.95297c0.18695,1.2166 0.35521,2.4172 0.54216,3.6338l-5.3281,0.59229c-0.24304,-1.60079 -0.61694,-3.15357 -0.85997,-4.57827c-0.11217,0.01601 -0.22434,0.03202 -0.33651,0.04802l-0.67302,-4.00199c0.14956,-0.67233 0.33651,-1.15257 0.35521,-1.64882c0.13087,-3.92195 0.99084,-4.81839 5.60853,-5.07452c16.61993,-0.94447 33.14639,0 49.72894,1.0085c25.23837,1.53676 50.53282,2.36918 75.82728,0.81641c13.21743,-0.81641 26.41616,-0.49625 39.5962,0.43221c0.91606,0.06403 1.83212,0.12806 2.74818,0.12806z"/>
    <path id="svg_127" fill="#510B0B" d="m384.68084,100.17435c-10.99271,2.48123 -21.06937,-1.24862 -24.45318,-8.83639c4.41204,1.93696 8.20714,3.84191 12.22659,5.29863c3.96336,1.42471 8.15106,2.38518 12.22659,3.53776z"/>
    <path id="svg_128" fill="#510B0B" d="m363.94798,135.84005c-6.01982,1.53676 -11.85269,1.26463 -17.27426,-0.2081c-21.12545,-5.73084 -36.97889,-16.87237 -46.36382,-34.32103c-0.20565,-0.35217 -0.24304,-0.78439 -0.31782,-1.2006c-0.0187,-0.11206 0.07478,-0.24012 0.24304,-0.75237c3.98205,1.74487 6.11329,5.02649 9.25407,7.34765c3.15947,2.33716 6.15068,4.85041 9.42232,7.07551c3.40251,2.32115 6.93588,4.51424 10.56273,6.53124c3.64554,2.00099 7.45934,3.80989 11.29183,5.57076c3.66424,1.71285 7.44065,3.26562 11.17966,4.86642c3.86988,1.64882 7.75846,3.28163 12.00225,5.09053z"/>
    <path id="svg_129" fill="#510B0B" d="m310.64829,77.01085c8.99234,8.18006 17.96598,16.40814 27.407,25.03643c-12.33876,-3.28163 -28.97739,-18.137 -28.73435,-25.21251c0.44868,0.06403 1.08432,-0.04802 1.32735,0.17609z"/>
    <path id="svg_130" fill="#510B0B" d="m285.55948,77.07489c6.13199,5.28262 12.26398,10.54924 18.39597,15.81585c-0.26173,0.25613 -0.52346,0.51225 -0.78519,0.76838c-9.04842,-2.84941 -14.56347,-8.67631 -18.32119,-15.97593c0.24304,-0.2081 0.46738,-0.4002 0.71041,-0.6083z"/>
    <path id="svg_131" fill="#510B0B" d="m274.56677,126.20327c4.82333,5.20258 10.80576,9.63678 16.24603,14.34312c-14.20827,-2.49724 -28.02394,-18.60123 -29.53824,-31.87182c4.5616,6.11503 8.3567,12.21406 13.29221,17.5287z"/>
    <path id="svg_132" fill="#510B0B" d="m221.58488,88.69665c-4.80464,6.13104 -13.18004,7.68381 -18.99421,3.53776c6.39372,-1.18459 12.50701,-2.33716 18.99421,-3.53776z"/>
    <path id="svg_133" fill="#510B0B" d="m212.29342,124.57046c-5.38419,3.84191 -11.36661,5.89092 -18.02207,6.49923c-6.13199,0.56028 -12.22659,0.14407 -18.15293,-1.39269c-19.61115,-5.02649 -34.41766,-15.19154 -44.36345,-30.52715c-0.33651,-0.51225 -0.46738,-1.13656 -0.69172,-1.71285c22.4715,19.35361 47.56031,32.33605 81.23016,27.13347z"/>
    <path id="svg_134" fill="#510B0B" d="m199.76772,79.49209c3.94466,0.62431 7.85194,1.37668 12.5444,2.2091c-9.98318,3.20159 -19.16247,3.07353 -28.21089,-0.35217c-4.1877,-1.58479 -6.11329,-3.55376 -7.96411,-7.87591c4.52421,1.68083 8.02019,3.32965 11.77791,4.25811c3.83249,0.96048 7.90802,1.13656 11.85269,1.76087z"/>
    <path id="svg_135" fill="#510B0B" d="m168.77126,87.73618c8.46888,2.14506 17.62947,2.2091 26.41616,3.16957c-15.04955,11.73382 -45.39168,1.56878 -51.3928,-13.15853c8.80539,3.6338 16.54515,7.8599 24.97664,9.98896z"/>
    <path id="svg_136" fill="#510B0B" d="m178.54879,143.65193c5.87026,0.08004 11.74052,0.70435 18.15293,1.12056c-11.31053,5.95496 -22.88279,7.02749 -35.0159,3.95396c-10.22621,-2.59329 -18.47075,-7.74785 -25.01403,-14.88739c-5.62722,-6.11503 -9.68406,-13.01446 -12.937,-20.26606c-0.14956,-0.33617 -0.09348,-0.75237 -0.20565,-1.77688c1.21518,0.99249 1.98168,1.55277 2.6547,2.19309c5.57114,5.36266 10.97402,10.85339 16.7321,16.07198c9.62797,8.72433 21.44327,13.38264 35.63284,13.59075z"/>
    <path id="svg_137" fill="#510B0B" d="m123.3235,80.35652c2.22472,2.80139 4.99159,5.28262 7.51543,7.90792c-8.26323,-3.20159 -11.75921,-9.23658 -13.04917,-16.50419c1.81342,2.88143 3.38381,5.89092 5.53375,8.59627z"/>
    <path id="svg_138" fill="#510B0B" d="m112.12514,86.63163c3.23425,4.94645 6.4685,9.8769 9.70275,14.82336c-5.66461,-3.74586 -8.05758,-9.09251 -10.58142,-14.37513c0.29912,-0.16008 0.57955,-0.30415 0.87867,-0.44822z"/>
   </g>
  </g>
 </g>
</svg>